# xmcd CD database file
#
# Track frame offsets:
#	150
#	17665
#	30840
#	49688
#	68616
#	87701
#	105976
#	122878
#	133442
#	150452
#	170832
#	187816
#	199422
#	219371
#	238170
#	248691
#	265984
#	287124
#	303230
#	322679
#
# Disc length: 4558 seconds
#
# Revision: 0
# Processed by: cddbd v1.5.1PL0 Copyright (c) Steve Scherf et al.
# Submitted via: CDex 1.51
#
DISCID=1511cc14
DTITLE=los sonidos del caribe - sones guarachas y mas
DYEAR=2000
DGENRE=Salsa
TTITLE0=mala mujer
TTITLE1=las maracas de coba
TTITLE2=el hombre misterioso
TTITLE3=corazon de acero
TTITLE4=traigo un tumbao
TTITLE5=algo de mi
TTITLE6=camina y ven
TTITLE7=la pelusa
TTITLE8=cumbia en el 33
TTITLE9=margot
TTITLE10=amor andino
TTITLE11=el viejito
TTITLE12=rumba quimbara
TTITLE13=anabacoa
TTITLE14=son de la loma
TTITLE15=monte
TTITLE16=tuve, tuve
TTITLE17=el llanto del pobre
TTITLE18=la ola marina
TTITLE19=don martin
EXTD=YEAR: 2000
EXTT0=
EXTT1=
EXTT2=
EXTT3=
EXTT4=
EXTT5=
EXTT6=
EXTT7=
EXTT8=
EXTT9=
EXTT10=
EXTT11=
EXTT12=
EXTT13=
EXTT14=
EXTT15=
EXTT16=
EXTT17=
EXTT18=
EXTT19=
PLAYORDER=
